<svg width="30" height="30" viewBox="0 0 30 30" fill="none" xmlns="http://www.w3.org/2000/svg">
<path id="Vector" d="M8.09338 0C3.63069 0 0 3.63069 0 8.09338V21.0428C0 25.5055 3.63069 29.1362 8.09338 29.1362H21.0428C25.5055 29.1362 29.1362 25.5055 29.1362 21.0428V8.09338C29.1362 3.63069 25.5055 0 21.0428 0H8.09338ZM8.09338 3.23735H21.0428C23.7201 3.23735 25.8988 5.41609 25.8988 8.09338V21.0428C25.8988 23.7201 23.7201 25.8988 21.0428 25.8988H8.09338C5.41609 25.8988 3.23735 23.7201 3.23735 21.0428V8.09338C3.23735 5.41609 5.41609 3.23735 8.09338 3.23735ZM22.6615 4.85603C22.2322 4.85603 21.8205 5.02657 21.5169 5.33013C21.2133 5.63369 21.0428 6.04541 21.0428 6.47471C21.0428 6.90401 21.2133 7.31572 21.5169 7.61929C21.8205 7.92285 22.2322 8.09338 22.6615 8.09338C23.0908 8.09338 23.5025 7.92285 23.8061 7.61929C24.1096 7.31572 24.2802 6.90401 24.2802 6.47471C24.2802 6.04541 24.1096 5.63369 23.8061 5.33013C23.5025 5.02657 23.0908 4.85603 22.6615 4.85603ZM14.5681 6.47471C10.1054 6.47471 6.47471 10.1054 6.47471 14.5681C6.47471 19.0308 10.1054 22.6615 14.5681 22.6615C19.0308 22.6615 22.6615 19.0308 22.6615 14.5681C22.6615 10.1054 19.0308 6.47471 14.5681 6.47471ZM14.5681 9.71206C17.2454 9.71206 19.4241 11.8908 19.4241 14.5681C19.4241 17.2454 17.2454 19.4241 14.5681 19.4241C11.8908 19.4241 9.71206 17.2454 9.71206 14.5681C9.71206 11.8908 11.8908 9.71206 14.5681 9.71206Z" fill="url(#paint0_linear_196_678)"/>
<defs>
<linearGradient id="paint0_linear_196_678" x1="14.5681" y1="0" x2="14.5681" y2="29.1362" gradientUnits="userSpaceOnUse">
<stop stop-color="#E44B4B"/>
<stop offset="1" stop-color="#2C67BF"/>
</linearGradient>
</defs>
</svg>
