<svg width="31" height="30" viewBox="0 0 31 30" fill="none" xmlns="http://www.w3.org/2000/svg">
<path id="Vector" d="M5.10506 0C2.28561 0 0 2.22986 0 4.98054V24.9027C0 27.6534 2.28561 29.8833 5.10506 29.8833H25.5253C28.3447 29.8833 30.6304 27.6534 30.6304 24.9027V4.98054C30.6304 2.22986 28.3447 0 25.5253 0H5.10506ZM6.62632 6.40356H12.4151L16.5259 12.1026L21.5142 6.40356H23.3374L17.3492 13.2435L24.7333 23.4797H18.946L14.1757 16.8677L8.38688 23.4797H6.56365L13.3523 15.7268L6.62632 6.40356ZM9.41815 7.82657L19.7066 22.0567H21.9415L11.653 7.82657H9.41815Z" fill="url(#paint0_linear_196_679)"/>
<defs>
<linearGradient id="paint0_linear_196_679" x1="15.3152" y1="0" x2="15.3152" y2="29.8833" gradientUnits="userSpaceOnUse">
<stop stop-color="#E44B4B"/>
<stop offset="1" stop-color="#2C67BF"/>
</linearGradient>
</defs>
</svg>
